<mxfile host="65bd71144e">
    <diagram id="0h7RQlpjayUFwvExTmw9" name="JProfiler">
        <mxGraphModel dx="820" dy="660" grid="1" gridSize="4" guides="1" tooltips="1" connect="1" arrows="1" fold="1" page="1" pageScale="1" pageWidth="850" pageHeight="1100" math="0" shadow="0">
            <root>
                <mxCell id="0"/>
                <mxCell id="1" parent="0"/>
                <mxCell id="4" value="" style="rounded=0;whiteSpace=wrap;html=1;fillColor=none;" parent="1" vertex="1">
                    <mxGeometry x="96" y="160" width="304" height="128" as="geometry"/>
                </mxCell>
                <mxCell id="2" value="Jprofiler UI" style="rounded=0;whiteSpace=wrap;html=1;" parent="1" vertex="1">
                    <mxGeometry x="96" y="64" width="80" height="64" as="geometry"/>
                </mxCell>
                <mxCell id="3" value="Jprofiler agent" style="rounded=0;whiteSpace=wrap;html=1;" parent="1" vertex="1">
                    <mxGeometry x="110" y="192" width="52" height="64" as="geometry"/>
                </mxCell>
                <mxCell id="5" value="" style="endArrow=classic;html=1;exitX=0.25;exitY=1;exitDx=0;exitDy=0;entryX=0.25;entryY=0;entryDx=0;entryDy=0;edgeStyle=orthogonalEdgeStyle;" parent="1" source="2" target="3" edge="1">
                    <mxGeometry width="50" height="50" relative="1" as="geometry">
                        <mxPoint x="268" y="330" as="sourcePoint"/>
                        <mxPoint x="318" y="280" as="targetPoint"/>
                    </mxGeometry>
                </mxCell>
                <mxCell id="6" value="profiled JVM" style="text;html=1;strokeColor=none;fillColor=none;align=center;verticalAlign=middle;whiteSpace=wrap;rounded=0;fontStyle=1" parent="1" vertex="1">
                    <mxGeometry x="192" y="154" width="80" height="30" as="geometry"/>
                </mxCell>
                <mxCell id="7" value="" style="endArrow=classic;html=1;exitX=0.75;exitY=0;exitDx=0;exitDy=0;entryX=0.75;entryY=1;entryDx=0;entryDy=0;edgeStyle=orthogonalEdgeStyle;" parent="1" source="3" target="2" edge="1">
                    <mxGeometry width="50" height="50" relative="1" as="geometry">
                        <mxPoint x="268" y="326" as="sourcePoint"/>
                        <mxPoint x="318" y="276" as="targetPoint"/>
                    </mxGeometry>
                </mxCell>
                <mxCell id="8" value="Jprofiler MBean" style="rounded=0;whiteSpace=wrap;html=1;" parent="1" vertex="1">
                    <mxGeometry x="332" y="192" width="52" height="64" as="geometry"/>
                </mxCell>
                <mxCell id="9" value="" style="endArrow=classic;html=1;exitX=1;exitY=0.5;exitDx=0;exitDy=0;entryX=0;entryY=0.5;entryDx=0;entryDy=0;" parent="1" source="3" target="8" edge="1">
                    <mxGeometry width="50" height="50" relative="1" as="geometry">
                        <mxPoint x="268" y="326" as="sourcePoint"/>
                        <mxPoint x="318" y="276" as="targetPoint"/>
                    </mxGeometry>
                </mxCell>
                <mxCell id="10" value="publish" style="edgeLabel;html=1;align=center;verticalAlign=middle;resizable=0;points=[];" parent="9" vertex="1" connectable="0">
                    <mxGeometry x="-0.0892" y="1" relative="1" as="geometry">
                        <mxPoint as="offset"/>
                    </mxGeometry>
                </mxCell>
                <mxCell id="11" value="jpcontroller" style="rounded=0;whiteSpace=wrap;html=1;" parent="1" vertex="1">
                    <mxGeometry x="320" y="64" width="80" height="64" as="geometry"/>
                </mxCell>
                <mxCell id="12" value="" style="endArrow=classic;html=1;exitX=0.5;exitY=1;exitDx=0;exitDy=0;edgeStyle=orthogonalEdgeStyle;" parent="1" source="11" target="8" edge="1">
                    <mxGeometry width="50" height="50" relative="1" as="geometry">
                        <mxPoint x="268" y="326" as="sourcePoint"/>
                        <mxPoint x="318" y="276" as="targetPoint"/>
                    </mxGeometry>
                </mxCell>
                <mxCell id="13" value="JMX" style="edgeLabel;html=1;align=center;verticalAlign=middle;resizable=0;points=[];" parent="12" vertex="1" connectable="0">
                    <mxGeometry x="-0.4318" y="-1" relative="1" as="geometry">
                        <mxPoint as="offset"/>
                    </mxGeometry>
                </mxCell>
            </root>
        </mxGraphModel>
    </diagram>
    <diagram id="Jsnulry82SwpmwSc3at5" name="Architecture">
        <mxGraphModel dx="865" dy="660" grid="1" gridSize="4" guides="1" tooltips="1" connect="1" arrows="1" fold="1" page="1" pageScale="1" pageWidth="850" pageHeight="1100" math="0" shadow="0">
            <root>
                <mxCell id="Tz8qQOiP3NTbOgc7Y25g-0"/>
                <mxCell id="Tz8qQOiP3NTbOgc7Y25g-1" parent="Tz8qQOiP3NTbOgc7Y25g-0"/>
                <mxCell id="Qox8EImN1JCZUBl1jws8-0" value="" style="rounded=0;whiteSpace=wrap;html=1;dashed=1;fillColor=none;" vertex="1" parent="Tz8qQOiP3NTbOgc7Y25g-1">
                    <mxGeometry x="33" y="177" width="240" height="240" as="geometry"/>
                </mxCell>
                <mxCell id="Qox8EImN1JCZUBl1jws8-2" value="" style="sketch=0;outlineConnect=0;fontColor=#232F3E;gradientColor=none;strokeColor=#ffffff;fillColor=#232F3E;dashed=0;verticalLabelPosition=middle;verticalAlign=bottom;align=center;html=1;whiteSpace=wrap;fontSize=10;fontStyle=1;spacing=3;shape=mxgraph.aws4.productIcon;prIcon=mxgraph.aws4.vpc;" vertex="1" parent="Tz8qQOiP3NTbOgc7Y25g-1">
                    <mxGeometry x="34" y="178" width="32" height="32" as="geometry"/>
                </mxCell>
                <mxCell id="Qox8EImN1JCZUBl1jws8-4" value="" style="rounded=0;whiteSpace=wrap;html=1;dashed=1;fillColor=none;" vertex="1" parent="Tz8qQOiP3NTbOgc7Y25g-1">
                    <mxGeometry x="305" y="177" width="495" height="240" as="geometry"/>
                </mxCell>
                <mxCell id="Qox8EImN1JCZUBl1jws8-5" value="" style="rounded=1;whiteSpace=wrap;html=1;fillColor=none;" vertex="1" parent="Tz8qQOiP3NTbOgc7Y25g-1">
                    <mxGeometry x="49" y="259" width="84" height="78" as="geometry"/>
                </mxCell>
                <mxCell id="Qox8EImN1JCZUBl1jws8-6" value="Agent" style="rounded=1;whiteSpace=wrap;html=1;fillColor=#f5f5f5;strokeColor=#666666;fontColor=#333333;" vertex="1" parent="Tz8qQOiP3NTbOgc7Y25g-1">
                    <mxGeometry x="81" y="289" width="44" height="44" as="geometry"/>
                </mxCell>
                <mxCell id="Qox8EImN1JCZUBl1jws8-9" value="Host&lt;br&gt;Agent" style="rounded=1;whiteSpace=wrap;html=1;fillColor=none;" vertex="1" parent="Tz8qQOiP3NTbOgc7Y25g-1">
                    <mxGeometry x="161" y="259" width="84" height="78" as="geometry"/>
                </mxCell>
                <mxCell id="Qox8EImN1JCZUBl1jws8-10" value="" style="endArrow=classic;html=1;exitX=1;exitY=0.5;exitDx=0;exitDy=0;entryX=0;entryY=0.5;entryDx=0;entryDy=0;edgeStyle=orthogonalEdgeStyle;" edge="1" parent="Tz8qQOiP3NTbOgc7Y25g-1" source="Qox8EImN1JCZUBl1jws8-6" target="Qox8EImN1JCZUBl1jws8-9">
                    <mxGeometry width="50" height="50" relative="1" as="geometry">
                        <mxPoint x="397" y="283" as="sourcePoint"/>
                        <mxPoint x="447" y="233" as="targetPoint"/>
                    </mxGeometry>
                </mxCell>
                <mxCell id="Qox8EImN1JCZUBl1jws8-11" value="Kafka" style="rounded=1;whiteSpace=wrap;html=1;fillColor=none;" vertex="1" parent="Tz8qQOiP3NTbOgc7Y25g-1">
                    <mxGeometry x="321" y="259" width="84" height="78" as="geometry"/>
                </mxCell>
                <mxCell id="Qox8EImN1JCZUBl1jws8-12" value="" style="sketch=0;outlineConnect=0;fontColor=#232F3E;gradientColor=none;strokeColor=#ffffff;fillColor=#232F3E;dashed=0;verticalLabelPosition=middle;verticalAlign=bottom;align=center;html=1;whiteSpace=wrap;fontSize=10;fontStyle=1;spacing=3;shape=mxgraph.aws4.productIcon;prIcon=mxgraph.aws4.vpc;" vertex="1" parent="Tz8qQOiP3NTbOgc7Y25g-1">
                    <mxGeometry x="306" y="178" width="32" height="32" as="geometry"/>
                </mxCell>
                <mxCell id="Qox8EImN1JCZUBl1jws8-13" value="" style="shape=image;verticalLabelPosition=bottom;labelBackgroundColor=#ffffff;verticalAlign=top;aspect=fixed;imageAspect=0;image=https://cdn.icon-icons.com/icons2/2248/PNG/512/apache_kafka_icon_138937.png;" vertex="1" parent="Tz8qQOiP3NTbOgc7Y25g-1">
                    <mxGeometry x="321" y="261" width="24" height="24" as="geometry"/>
                </mxCell>
                <mxCell id="Qox8EImN1JCZUBl1jws8-14" value="" style="endArrow=classic;html=1;exitX=1;exitY=0.5;exitDx=0;exitDy=0;entryX=0;entryY=0.5;entryDx=0;entryDy=0;" edge="1" parent="Tz8qQOiP3NTbOgc7Y25g-1" source="Qox8EImN1JCZUBl1jws8-9" target="Qox8EImN1JCZUBl1jws8-11">
                    <mxGeometry width="50" height="50" relative="1" as="geometry">
                        <mxPoint x="397" y="411" as="sourcePoint"/>
                        <mxPoint x="447" y="361" as="targetPoint"/>
                    </mxGeometry>
                </mxCell>
                <mxCell id="Qox8EImN1JCZUBl1jws8-15" value="" style="sketch=0;outlineConnect=0;fontColor=#232F3E;gradientColor=none;strokeColor=#ffffff;fillColor=#232F3E;dashed=0;verticalLabelPosition=middle;verticalAlign=bottom;align=center;html=1;whiteSpace=wrap;fontSize=10;fontStyle=1;spacing=3;shape=mxgraph.aws4.productIcon;prIcon=mxgraph.aws4.ec2;" vertex="1" parent="Tz8qQOiP3NTbOgc7Y25g-1">
                    <mxGeometry x="53" y="261" width="24" height="24" as="geometry"/>
                </mxCell>
                <mxCell id="Qox8EImN1JCZUBl1jws8-16" value="" style="sketch=0;outlineConnect=0;fontColor=#232F3E;gradientColor=none;strokeColor=#ffffff;fillColor=#232F3E;dashed=0;verticalLabelPosition=middle;verticalAlign=bottom;align=center;html=1;whiteSpace=wrap;fontSize=10;fontStyle=1;spacing=3;shape=mxgraph.aws4.productIcon;prIcon=mxgraph.aws4.ec2;" vertex="1" parent="Tz8qQOiP3NTbOgc7Y25g-1">
                    <mxGeometry x="165" y="261" width="24" height="24" as="geometry"/>
                </mxCell>
                <mxCell id="Qox8EImN1JCZUBl1jws8-17" value="Backend Processor" style="rounded=1;whiteSpace=wrap;html=1;fillColor=none;" vertex="1" parent="Tz8qQOiP3NTbOgc7Y25g-1">
                    <mxGeometry x="433" y="259" width="84" height="78" as="geometry"/>
                </mxCell>
                <mxCell id="Qox8EImN1JCZUBl1jws8-18" value="ElasticS" style="rounded=1;whiteSpace=wrap;html=1;fillColor=none;" vertex="1" parent="Tz8qQOiP3NTbOgc7Y25g-1">
                    <mxGeometry x="561" y="305" width="84" height="78" as="geometry"/>
                </mxCell>
                <mxCell id="Qox8EImN1JCZUBl1jws8-19" value="Mongo" style="rounded=1;whiteSpace=wrap;html=1;fillColor=none;" vertex="1" parent="Tz8qQOiP3NTbOgc7Y25g-1">
                    <mxGeometry x="561" y="211" width="84" height="78" as="geometry"/>
                </mxCell>
                <mxCell id="Qox8EImN1JCZUBl1jws8-20" value="" style="endArrow=classic;html=1;exitX=1;exitY=0.5;exitDx=0;exitDy=0;" edge="1" parent="Tz8qQOiP3NTbOgc7Y25g-1" source="Qox8EImN1JCZUBl1jws8-11" target="Qox8EImN1JCZUBl1jws8-17">
                    <mxGeometry width="50" height="50" relative="1" as="geometry">
                        <mxPoint x="353" y="319" as="sourcePoint"/>
                        <mxPoint x="403" y="269" as="targetPoint"/>
                    </mxGeometry>
                </mxCell>
                <mxCell id="Qox8EImN1JCZUBl1jws8-21" value="" style="endArrow=classic;html=1;exitX=1;exitY=0.5;exitDx=0;exitDy=0;entryX=0;entryY=0.5;entryDx=0;entryDy=0;edgeStyle=orthogonalEdgeStyle;" edge="1" parent="Tz8qQOiP3NTbOgc7Y25g-1" source="Qox8EImN1JCZUBl1jws8-17" target="Qox8EImN1JCZUBl1jws8-19">
                    <mxGeometry width="50" height="50" relative="1" as="geometry">
                        <mxPoint x="353" y="319" as="sourcePoint"/>
                        <mxPoint x="403" y="269" as="targetPoint"/>
                    </mxGeometry>
                </mxCell>
                <mxCell id="Qox8EImN1JCZUBl1jws8-22" value="" style="endArrow=classic;html=1;exitX=1;exitY=0.5;exitDx=0;exitDy=0;entryX=0;entryY=0.5;entryDx=0;entryDy=0;edgeStyle=orthogonalEdgeStyle;" edge="1" parent="Tz8qQOiP3NTbOgc7Y25g-1" source="Qox8EImN1JCZUBl1jws8-17" target="Qox8EImN1JCZUBl1jws8-18">
                    <mxGeometry width="50" height="50" relative="1" as="geometry">
                        <mxPoint x="353" y="319" as="sourcePoint"/>
                        <mxPoint x="403" y="269" as="targetPoint"/>
                    </mxGeometry>
                </mxCell>
                <mxCell id="Qox8EImN1JCZUBl1jws8-23" value="" style="shape=image;verticalLabelPosition=bottom;labelBackgroundColor=#ffffff;verticalAlign=top;aspect=fixed;imageAspect=0;image=https://w7.pngwing.com/pngs/480/899/png-transparent-mongodb-inc-computer-icons-mongodb-icons-cdr-angle-black.png;" vertex="1" parent="Tz8qQOiP3NTbOgc7Y25g-1">
                    <mxGeometry x="566" y="213.20999999999998" width="22.53" height="24" as="geometry"/>
                </mxCell>
                <mxCell id="Qox8EImN1JCZUBl1jws8-29" value="" style="shape=image;verticalLabelPosition=bottom;labelBackgroundColor=#ffffff;verticalAlign=top;aspect=fixed;imageAspect=0;image=https://cdn.iconscout.com/icon/free/png-256/elastic-search-3628156-3030976.png;" vertex="1" parent="Tz8qQOiP3NTbOgc7Y25g-1">
                    <mxGeometry x="562" y="307" width="24" height="24" as="geometry"/>
                </mxCell>
                <mxCell id="Qox8EImN1JCZUBl1jws8-31" value="Recommeder" style="rounded=1;whiteSpace=wrap;html=1;fillColor=none;" vertex="1" parent="Tz8qQOiP3NTbOgc7Y25g-1">
                    <mxGeometry x="688" y="211" width="84" height="78" as="geometry"/>
                </mxCell>
                <mxCell id="Qox8EImN1JCZUBl1jws8-32" value="Query&lt;br&gt;Engine" style="rounded=1;whiteSpace=wrap;html=1;fillColor=none;" vertex="1" parent="Tz8qQOiP3NTbOgc7Y25g-1">
                    <mxGeometry x="688" y="305" width="84" height="78" as="geometry"/>
                </mxCell>
                <mxCell id="Qox8EImN1JCZUBl1jws8-33" value="" style="endArrow=classic;html=1;exitX=1;exitY=0.5;exitDx=0;exitDy=0;entryX=0;entryY=0.5;entryDx=0;entryDy=0;" edge="1" parent="Tz8qQOiP3NTbOgc7Y25g-1" source="Qox8EImN1JCZUBl1jws8-18" target="Qox8EImN1JCZUBl1jws8-32">
                    <mxGeometry width="50" height="50" relative="1" as="geometry">
                        <mxPoint x="409" y="302" as="sourcePoint"/>
                        <mxPoint x="437" y="302" as="targetPoint"/>
                    </mxGeometry>
                </mxCell>
                <mxCell id="Qox8EImN1JCZUBl1jws8-34" value="" style="endArrow=classic;html=1;exitX=1;exitY=0.5;exitDx=0;exitDy=0;entryX=0;entryY=0.5;entryDx=0;entryDy=0;" edge="1" parent="Tz8qQOiP3NTbOgc7Y25g-1" source="Qox8EImN1JCZUBl1jws8-19" target="Qox8EImN1JCZUBl1jws8-31">
                    <mxGeometry width="50" height="50" relative="1" as="geometry">
                        <mxPoint x="413" y="306" as="sourcePoint"/>
                        <mxPoint x="441" y="306" as="targetPoint"/>
                    </mxGeometry>
                </mxCell>
                <mxCell id="Qox8EImN1JCZUBl1jws8-35" value="" style="shape=image;verticalLabelPosition=bottom;labelBackgroundColor=#ffffff;verticalAlign=top;aspect=fixed;imageAspect=0;image=https://w7.pngwing.com/pngs/113/507/png-transparent-query-language-computer-icons-database-dopyt-others-angle-symbol-svg-thumbnail.png;" vertex="1" parent="Tz8qQOiP3NTbOgc7Y25g-1">
                    <mxGeometry x="692" y="308.27" width="22.32" height="23" as="geometry"/>
                </mxCell>
                <mxCell id="Qox8EImN1JCZUBl1jws8-36" value="" style="shape=image;verticalLabelPosition=bottom;labelBackgroundColor=#ffffff;verticalAlign=top;aspect=fixed;imageAspect=0;image=data:image/png,iVBORw0KGgoAAAANSUhEUgAAAOEAAADhCAMAAAAJbSJIAAAAilBMVEX///8AAACOjo78/Pzv7+/a2tqUlJTr6+twcHDIyMj19fX4+PjLy8u8vLzOzs6zs7NpaWl2dnYYGBji4uLV1dWmpqabm5t8fHxQUFBiYmKDg4OSkpLm5uawsLCJiYnCwsIqKioQEBAjIyNNTU1YWFg3Nzc9PT1HR0ehoaFBQUEwMDALCwscHBwlJSWReIwqAAAKI0lEQVR4nO1d20LqOhC1lIuABRGogiBUEVH0/3/vCAKZXJu2mUzYp+txW7uzbDL3mdzc1KhRo0aNGjVq1Kjxf8H4Ltmlz412ulwNetSLcY3WcrSNeGwaSZN6WY7QT+4jDbbpmHp11TG41dH7w9c0pl5iJQzXZn5HzDvUyyyN4YMFvwNur/NE3n1b8jt+x+vbq81NAX4HJNQrLohlQX6/2FyTjoxnxQn+YkW9bmu0SvH7xZx65ZYYliUYRW9XIXCeyxOMotcr0BuPVQj+Ing7LsdIu36KWiP7X6E4d0AwigK2U6dOCEb7YHV/1w3BKHqnZqJBxxXBX2eDmosaX+4YRjtqMipU1xMQE2o6MhKnBKOMmo+EnluCUfRIzUhEUYc3HwNqSjxWzglGr9SceLgnGEVtalIQlTwmLQLypJooBEPS+1V9Qh0W1MTOcGiu8binZnbGCIthKK4i0ik8IBC138BjGIXhKSISjFJqcgdUCI/m45ua3QFvmAyjO2p6iKriDwFo/R0uw4g+zv+OzJA8r4i8SQPYpiVSoQVBzdC9by+COiaFTpBa6U/wGb7RMsTWFQfQMnSRTctDi5ShbdVTFSwpCSK6hgykTqIHQRNFT5QM8fX9AZQMX7wwpDS+fYhSWmH66YVhl5ChF4Kk6sIPQ0LLtO+H4QsdQ3T39w+EKn/hhyFh+mLshyGhUVO6GLgYPmqGePj3d6knSbOhY+jFPSSVpbEfhpRNCn4YEto0/75deiO2vuKAMjnjxwOmrOHDKhXiQVlz4qg4PweEBN1V55vwRcnQi4M4o2ToRV3QpteePDCkDLVhlc7yoG2D8iBqHkgJ+oi2Udcn4ttt1AU1+AeRugATPYNIGKQ5AZshfYUptvFNX68/wCUYQjtphspwSk3vBreQnV6SHoDqX5DXXh6BWZ5IXZj4B0RZE4KcOQDPcqO22M5AaCD9w5qa2QUuO/EhQvmEaF7impoXAE4wI4B+mQtQUqWkNYkSMOzvsMbUIGQSg2pWv3E+FsMc6W5209HmVIC93oymfkbauk5DadMx3cdX+en3Z3z7zvE+1Qyoaem7qvcv2AfXacRGXX6R5NiHM+QP6bC7ZN9XvH/1k/+LT7j1xO6OouIQjj/sfvUedZqGKydjKL+6QM08auDDZjByPmRN2Clk2z8hFvf39g4IyomKou7ZA2Lmv5lVJjiSXloi1oU4zrZZZAK0HUGVCnxrJ4NFP477nUnSUE0EQKzv71dzh5+lF8pz4B67wkGLu/JDmC0MVWJv8rrEtX8pBO2B5FTcPOrn3KB8N5Rc/dTmH8gMgQ2xzQzTgS4ZmvqUXQTBZTFXKcaCl4ppp/bKhDUUDiFfhJzlmmR33PO4E98Kz3TZqnQYZ0HYVA7Fn0V/ozx6xWZhKk0t7kBLOzQeTwaDibgVuXHwyFPeJ/Zbda7yJfhmB34Pxwn7A37wN51wFLGbMyd2ikN3hQc05PkvmApveIMcoQHQwCN3wjh3OvT3Tvn9bvijzJ2oSSa/BuzyGJ5eH5MJE9NFCSND0Rqw4rkclDroBSoaYEZTNgIx0FvNVXN6tuboEfyEcBPqknlAwUPd72+8ZCtJH5++1t8PD9n6Y9ROcnUbsG9hxYl22C2sfwMyjrKVwQwQ2OI0NwyVfM1gYBEYdNBS8L1wawB1Cg1MtvbXo7JrMsYwPgcEXDgpOh4g/MqJmcvS38+qjhmj4DEgbGiLqPUAxjv3ES4ClumYy4NQHoHNTD8PTQngJsB/vpxO4P1d9jPUPEDi0lZRa8FECBeYOked94p/471L5hCHKU1B7TG37l63cYwMQ2vsYp9z5imTNaGUrPAAukI6Rv3J7g3Svnwt7ilQW6AzC0nBDJrcXPelM4mPswLLIJBZvTxYeCbvFLV0RJj9HaRGZMI+JwvBaiTEXloWZg3ysgwWjDDLeqYUJHnyrOUeBJjZbTxEzBP+keJ0zMEIo4RTAFOHpjpvthG3suHCrKIg7TY26c7g3zHjXOXnBs7w24Ih24bK6LZfhr3FuNUadFdJMjwg6U5a40XHYBIzUa/dpReF96WupmEM0WYy9DuDZPoy2hgSww8f94/Pw1WrJ5K1kDRnWakzyliPMkKsZrxKRx+FEon77ayxA9+ClSVotcX5AV09FAsnOw0p9gbTUelkPjhyTIjoNP7ZltEm0ViIz1kqcbK7r1SpACfMM3Wt22Jny1W7nOzyChcOYn/Qrj58fgteyGKiOcdMO7sGxDEqZ9laO8tinhzAxYKSXI26OOkKrSYAceNq9Lruamc544r9s+YU5X1DdpIr1BrHK6cll5x/x3I6JWcosfeW7mDsuq4o5VwAUAZYKi4PcgLlivkWCB1rnNQEB7GUOmPu1z7/YRkrlGYu3rgCikdl3fUnrT+oBSWI8xT3DptteXFOwEsEkARVHaRL8EL9hUE6v+gmHeONFeJr1+GkNMVJvDBUlvSDiHnBWKJl2rochGsrwZ9SofSMDGHNeaHSqAKlB6XAfypYpyBHy4wM4T4rwK+FPqlFcGThfpG8RBNDmAK2Lxhuur0qVglhNbCZSrr3ycCQ66SzJoglPzmIxw0ahKLppWfIVeHYlgyhNYkKEP5brklFoNiKHo6QGHJtH5YRmqapXMQpRNXF/WU/rDKd/Mew64fyczvAEZL25g5/ZpFh4U+TVcIi9vYBI1VbbMb9PC8B0ePdcKvpRF5GzjFIJUTClNt342cUJgBuTc+e4WcuIoMc2bwTnrjVxk8TIUj0bZEY7fm5+gBCtkClUtyNKsLdnEpNiRZupadZ1hwUro4s6fbzLrf8xVQRKLKY3ONLCfJQ/OWVtYjZ0yidLpfT9q0yyPdtEV/zM7hTgirHUHy0yJuF7sSdq2OAqiKzo+j8NcKi1cK3EGVQtxAUXU/ABHVxlW6xvr+84ExucTYqNGkGsXrdDHN0xourZIDGXu4V+cMbR/N6NLXV0JpbTbP828AOFEOk28tdamYYAvnaSPs6XcDEqk16nBKmzHt8l4oRv/3t8o8PNNS1d1+6yZRVRZ5z3hks0+f56Pb2JU0mwMSG4kiTtKKWMmeUTYlBB0MpsQI4hCe8lsvcQndBuRF83Lppi3Lp97n5DX7uM7RFuRnJGXiD9ENPN+NYIyvTIQkDL9LfCP8K6qJ4KjFxBmpM4dfDETMAm8IcoUb/Cf0THvE51PuznVQRYoShHS4kThGXscRsqIorjdNjH638IxjYgE6Gh+xSBfzc7wbj88fsj1fpLDv9RLZiYRMpiHsHYZBaQFbZcpr3Uqsyg0FTotCTC8ix31N9Kq9t/NzdhALZFTlmVx95CeXpljgcyLG1l2gtqhlyz74KMolhLGe/w5akebApfArJqyiB/MonT1f7oiH/2ivPqVD3yG1Qu2JteEJeTCAs37cMtLG1E/zcZIiKnLYKnyUXWDAn7gP1DQvBXPM+fWlcPXTTmGrUqFGjRo0aNWrUCAT/AbWFpGP6jXG5AAAAAElFTkSuQmCC;" vertex="1" parent="Tz8qQOiP3NTbOgc7Y25g-1">
                    <mxGeometry x="692.3199999999999" y="213.20999999999998" width="24" height="24" as="geometry"/>
                </mxCell>
                <mxCell id="Qox8EImN1JCZUBl1jws8-37" value="" style="sketch=0;outlineConnect=0;fontColor=#232F3E;gradientColor=none;strokeColor=#ffffff;fillColor=#232F3E;dashed=0;verticalLabelPosition=middle;verticalAlign=bottom;align=center;html=1;whiteSpace=wrap;fontSize=10;fontStyle=1;spacing=3;shape=mxgraph.aws4.productIcon;prIcon=mxgraph.aws4.ec2;" vertex="1" parent="Tz8qQOiP3NTbOgc7Y25g-1">
                    <mxGeometry x="437" y="261" width="24" height="24" as="geometry"/>
                </mxCell>
                <mxCell id="Qox8EImN1JCZUBl1jws8-39" value="" style="rounded=0;whiteSpace=wrap;html=1;dashed=1;fillColor=none;" vertex="1" parent="Tz8qQOiP3NTbOgc7Y25g-1">
                    <mxGeometry x="305" y="33" width="240" height="112" as="geometry"/>
                </mxCell>
                <mxCell id="Qox8EImN1JCZUBl1jws8-40" value="Cloud Profiler VPC" style="text;html=1;strokeColor=none;fillColor=none;align=center;verticalAlign=middle;whiteSpace=wrap;rounded=0;" vertex="1" parent="Tz8qQOiP3NTbOgc7Y25g-1">
                    <mxGeometry x="346" y="175" width="116" height="30" as="geometry"/>
                </mxCell>
                <mxCell id="Qox8EImN1JCZUBl1jws8-41" value="Profiled Tenant" style="text;html=1;strokeColor=none;fillColor=none;align=center;verticalAlign=middle;whiteSpace=wrap;rounded=0;" vertex="1" parent="Tz8qQOiP3NTbOgc7Y25g-1">
                    <mxGeometry x="79" y="175" width="87" height="30" as="geometry"/>
                </mxCell>
                <mxCell id="Qox8EImN1JCZUBl1jws8-42" value="Profiler&lt;br&gt;UI" style="rounded=1;whiteSpace=wrap;html=1;fillColor=none;" vertex="1" parent="Tz8qQOiP3NTbOgc7Y25g-1">
                    <mxGeometry x="383" y="50" width="84" height="78" as="geometry"/>
                </mxCell>
                <mxCell id="Qox8EImN1JCZUBl1jws8-43" value="Client" style="text;html=1;strokeColor=none;fillColor=none;align=center;verticalAlign=middle;whiteSpace=wrap;rounded=0;" vertex="1" parent="Tz8qQOiP3NTbOgc7Y25g-1">
                    <mxGeometry x="338" y="29" width="60" height="30" as="geometry"/>
                </mxCell>
                <mxCell id="Qox8EImN1JCZUBl1jws8-45" value="" style="sketch=0;outlineConnect=0;fontColor=#232F3E;gradientColor=none;strokeColor=#ffffff;fillColor=#232F3E;dashed=0;verticalLabelPosition=middle;verticalAlign=bottom;align=center;html=1;whiteSpace=wrap;fontSize=10;fontStyle=1;spacing=3;shape=mxgraph.aws4.productIcon;prIcon=mxgraph.aws4.athena;" vertex="1" parent="Tz8qQOiP3NTbOgc7Y25g-1">
                    <mxGeometry x="306" y="34" width="32" height="32" as="geometry"/>
                </mxCell>
                <mxCell id="Qox8EImN1JCZUBl1jws8-47" value="" style="endArrow=classic;html=1;exitX=0.5;exitY=1;exitDx=0;exitDy=0;entryX=0.5;entryY=0;entryDx=0;entryDy=0;edgeStyle=orthogonalEdgeStyle;strokeColor=#990000;" edge="1" parent="Tz8qQOiP3NTbOgc7Y25g-1" source="Qox8EImN1JCZUBl1jws8-42" target="Qox8EImN1JCZUBl1jws8-9">
                    <mxGeometry width="50" height="50" relative="1" as="geometry">
                        <mxPoint x="392" y="351" as="sourcePoint"/>
                        <mxPoint x="442" y="301" as="targetPoint"/>
                        <Array as="points">
                            <mxPoint x="425" y="161"/>
                            <mxPoint x="203" y="161"/>
                        </Array>
                    </mxGeometry>
                </mxCell>
                <mxCell id="Qox8EImN1JCZUBl1jws8-48" value="" style="endArrow=classic;html=1;strokeColor=#990000;exitX=0.5;exitY=1;exitDx=0;exitDy=0;entryX=0;entryY=0.5;entryDx=0;entryDy=0;edgeStyle=orthogonalEdgeStyle;" edge="1" parent="Tz8qQOiP3NTbOgc7Y25g-1" source="Qox8EImN1JCZUBl1jws8-42" target="Qox8EImN1JCZUBl1jws8-35">
                    <mxGeometry width="50" height="50" relative="1" as="geometry">
                        <mxPoint x="380" y="363" as="sourcePoint"/>
                        <mxPoint x="430" y="313" as="targetPoint"/>
                        <Array as="points">
                            <mxPoint x="425" y="161"/>
                            <mxPoint x="672" y="161"/>
                            <mxPoint x="672" y="320"/>
                        </Array>
                    </mxGeometry>
                </mxCell>
                <mxCell id="Qox8EImN1JCZUBl1jws8-49" value="" style="endArrow=classic;html=1;strokeColor=#990000;exitX=0.5;exitY=1;exitDx=0;exitDy=0;entryX=0;entryY=0.25;entryDx=0;entryDy=0;edgeStyle=orthogonalEdgeStyle;" edge="1" parent="Tz8qQOiP3NTbOgc7Y25g-1" source="Qox8EImN1JCZUBl1jws8-42" target="Qox8EImN1JCZUBl1jws8-31">
                    <mxGeometry width="50" height="50" relative="1" as="geometry">
                        <mxPoint x="404" y="363" as="sourcePoint"/>
                        <mxPoint x="454" y="313" as="targetPoint"/>
                        <Array as="points">
                            <mxPoint x="425" y="161"/>
                            <mxPoint x="672" y="161"/>
                            <mxPoint x="672" y="231"/>
                        </Array>
                    </mxGeometry>
                </mxCell>
                <mxCell id="Qox8EImN1JCZUBl1jws8-52" value="" style="sketch=0;outlineConnect=0;fontColor=#232F3E;gradientColor=none;strokeColor=#ffffff;fillColor=#232F3E;dashed=0;verticalLabelPosition=middle;verticalAlign=bottom;align=center;html=1;whiteSpace=wrap;fontSize=10;fontStyle=1;spacing=3;shape=mxgraph.aws4.productIcon;prIcon=mxgraph.aws4.sagemaker;" vertex="1" parent="Tz8qQOiP3NTbOgc7Y25g-1">
                    <mxGeometry x="388" y="52" width="24" height="24" as="geometry"/>
                </mxCell>
                <mxCell id="Qox8EImN1JCZUBl1jws8-53" value="send command" style="text;html=1;strokeColor=none;fillColor=none;align=center;verticalAlign=middle;whiteSpace=wrap;rounded=0;fontColor=#990000;" vertex="1" parent="Tz8qQOiP3NTbOgc7Y25g-1">
                    <mxGeometry x="202" y="137" width="92" height="30" as="geometry"/>
                </mxCell>
                <mxCell id="Qox8EImN1JCZUBl1jws8-54" value="send query" style="text;html=1;strokeColor=none;fillColor=none;align=center;verticalAlign=middle;whiteSpace=wrap;rounded=0;fontColor=#990000;" vertex="1" parent="Tz8qQOiP3NTbOgc7Y25g-1">
                    <mxGeometry x="594" y="137" width="92" height="30" as="geometry"/>
                </mxCell>
            </root>
        </mxGraphModel>
    </diagram>
</mxfile>